PathFileType	4	(X/Y/Z)	c:/Users/goper/Files/vsCode/490R/osim_files/C03/C03_SSW_05.trc
DataRate	CameraRate	NumFrames	NumMarkers	Units                	OrigDataRate	OrigDataStartFrame	OrigNumFrames
250.00	250.00	8	36	mm	250.0	1364	2726
                Frame#	Time	LPSIS			LASIS			LTH1			LTH2			LTH3			LTH4			LLFE			LMFE			LSH1			LSH2			LSH3			LSH4			LLMAL			LMMAL			LCAL			LMTP5			LTOE			LMTP1			RPSIS			RASIS			RTH1			RTH2			RTH3			RTH4			RLFE			RMFE			RSH1			RSH2			RSH3			RSH4			RLMAL			RMMAL			RCAL			RMTP1			RTOE			RMTP5		
		X1	Y1	Z1	X2	Y2	Z2	X3	Y3	Z3	X4	Y4	Z4	X5	Y5	Z5	X6	Y6	Z6	X7	Y7	Z7	X8	Y8	Z8	X9	Y9	Z9	X10	Y10	Z10	X11	Y11	Z11	X12	Y12	Z12	X13	Y13	Z13	X14	Y14	Z14	X15	Y15	Z15	X16	Y16	Z16	X17	Y17	Z17	X18	Y18	Z18	X19	Y19	Z19	X20	Y20	Z20	X21	Y21	Z21	X22	Y22	Z22	X23	Y23	Z23	X24	Y24	Z24	X25	Y25	Z25	X26	Y26	Z26	X27	Y27	Z27	X28	Y28	Z28	X29	Y29	Z29	X30	Y30	Z30	X31	Y31	Z31	X32	Y32	Z32	X33	Y33	Z33	X34	Y34	Z34	X35	Y35	Z35	X36	Y36	Z36

1364	5.45200	44.43302	1010.18274	272.39084	-134.52254	952.25055	282.11014	-158.72853	605.34161	333.94553	-191.06956	552.83899	323.11017	-225.31383	640.76172	335.12482	-249.19734	584.10223	323.40253	-250.49861	495.11090	311.86652	-253.24107	491.34839	199.01134	-263.97476	304.55032	315.03989	-287.16980	265.03638	312.13617	-317.29108	333.00116	324.26181	-333.65237	287.69632	319.97913	-397.53168	132.74792	293.36868	-408.57175	154.85565	215.74699	-355.13416	65.32179	258.89139	-542.52625	138.04208	307.89221	-558.17615	173.04373	254.61888	-543.09692	149.40755	215.07301	53.14748	1013.39148	161.20879	-103.87894	961.27136	77.76192	118.39105	621.32037	84.33369	135.48331	563.56848	100.26943	59.67017	602.74738	61.74536	67.89239	541.95911	72.00645	89.74282	475.10147	94.01505	97.48934	499.58496	204.84457	223.58197	319.12793	92.59737	232.50156	272.14212	98.71267	166.35419	297.69257	85.81408	182.64076	258.35318	90.70984	229.16151	111.56895	123.75027	218.72697	113.65680	204.79610	305.60962	79.50787	157.61098	100.90538	52.91791	202.69662	73.38844	63.91293	165.12970	126.27186	40.94640	97.77187
1365	5.45600	38.60470	1008.62482	273.06485	-140.45494	950.95972	282.16913	-163.37178	603.43799	334.08673	-195.52892	550.80487	323.28354	-230.33934	638.44330	335.71216	-253.79915	581.77509	324.20776	-255.39111	493.30850	312.14883	-258.25540	489.63522	199.29700	-271.35944	303.15735	315.38016	-295.29340	263.85257	312.27045	-324.37866	332.26031	324.60565	-341.42136	287.19775	320.27686	-407.44598	133.47394	293.61029	-418.47592	155.34067	216.03818	-366.43207	65.11655	259.29730	-551.97162	140.52045	308.31216	-567.64978	176.00041	254.95895	-553.20721	152.13980	215.38290	47.61219	1012.24603	162.05566	-109.24125	960.47125	77.74522	114.11610	621.24231	85.04213	131.49724	563.53955	101.05361	55.61959	602.45312	61.93682	64.12106	541.72052	72.07339	86.33318	474.79550	94.40515	93.10764	499.23636	205.16695	221.27783	319.91852	93.01041	230.60507	273.07080	99.09405	163.23163	298.14941	86.03780	180.86034	258.72412	90.98833	228.44817	112.34184	123.98412	217.99295	114.27459	204.94220	304.83911	80.41305	157.89122	100.63285	52.82118	202.72346	73.07629	63.66236	165.09421	126.26586	40.95594	97.81823
1366	5.46000	32.65845	1007.07611	273.73242	-146.70590	949.53149	282.14023	-168.06793	601.45740	334.24478	-200.04759	548.75458	323.48529	-234.92964	636.19965	336.99020	-258.44257	579.37256	325.14896	-260.29428	491.49414	312.55011	-263.11728	487.97409	199.54057	-278.35022	301.22043	316.13889	-303.22168	262.35657	312.12372	-331.31415	331.48053	324.90515	-348.98468	286.59323	320.62186	-417.11942	134.13823	293.88220	-427.98712	155.85039	216.20164	-377.17377	64.96927	259.65057	-562.58252	144.31554	309.57791	-576.38885	178.54213	255.79915	-563.07153	153.97037	215.80048	42.03621	1010.97235	162.84769	-114.67532	959.68799	77.72135	109.79333	621.14581	85.87743	126.94284	563.29852	101.49610	51.57553	602.32416	62.22974	60.31347	541.46753	72.15413	82.72842	474.52631	94.68391	88.32704	498.63174	205.38483	218.82248	320.66980	93.46244	228.83951	273.88971	99.54888	161.06299	298.44064	86.31227	179.10695	259.18240	91.19939	227.88565	113.14707	124.19357	217.03018	114.90351	205.27998	304.54919	81.64169	158.08183	100.34967	52.63438	202.76669	72.64500	63.40610	165.10791	126.20833	40.96898	97.85811
1367	5.46400	26.73781	1005.57416	274.45166	-152.56850	948.52032	282.28879	-172.84215	599.61823	334.44370	-204.68419	546.69556	323.77942	-239.95616	633.89410	337.90457	-263.12909	577.10736	326.03638	-265.29034	489.73859	312.93707	-267.93484	486.26230	199.82661	-285.80499	300.31567	316.48087	-311.02347	261.22147	312.48581	-338.31317	330.67538	325.24329	-356.08304	285.04044	322.34094	-426.44238	134.66106	294.07971	-437.33667	156.25090	216.38132	-387.53134	64.82064	259.97620	-571.64655	146.80273	310.12524	-585.27698	180.98303	256.24515	-572.08838	156.17210	216.42143	36.34371	1009.70752	163.70123	-120.09840	958.88867	77.62148	105.42531	621.12036	86.68690	122.68223	563.37415	102.33921	47.50855	602.14288	62.38169	56.43891	541.38794	72.23958	79.02624	474.30911	94.87509	83.57671	498.16855	205.63937	216.32646	321.48236	93.89295	226.75238	274.83090	100.08556	158.89268	298.77438	86.58673	177.20963	259.66129	91.48290	227.06352	113.99276	124.42128	215.88576	115.92937	205.73508	303.70816	82.60387	158.47043	100.04720	52.52277	202.78438	72.28088	63.16598	165.11012	126.15874	41.00237	97.91042
1368	5.46800	20.78676	1004.10706	274.98071	-158.67976	947.24994	282.25046	-177.63246	597.84607	334.64999	-209.20038	544.84015	323.99457	-245.03700	631.42041	338.33185	-267.83398	574.86230	326.84964	-270.19955	488.05478	313.20731	-272.81180	484.60278	200.07248	-293.00909	299.27057	316.97058	-318.74402	260.14792	312.79254	-345.14200	329.90955	325.47977	-364.00153	284.84235	322.62082	-435.32672	135.06506	294.23795	-445.98575	156.64188	216.61317	-397.32278	64.70171	260.07626	-580.27075	149.00426	310.70828	-594.10028	183.19392	256.66946	-580.97754	157.86203	217.21437	30.73417	1008.52057	164.44646	-124.76953	957.97601	77.58253	100.86824	621.05969	87.50063	118.23613	563.36938	103.13871	43.40525	601.80090	62.46575	52.62368	541.15417	72.18706	75.17387	474.04672	95.05340	78.70171	497.67300	205.86435	213.78008	322.42017	94.34857	224.66106	275.85358	100.53056	156.64935	299.12329	86.78970	175.30362	260.25641	91.77477	226.31474	114.86821	124.67867	214.90974	116.56768	205.92972	303.55252	84.13310	158.49402	99.75002	52.42350	202.75229	71.92760	62.90313	165.08763	126.09573	41.05006	97.96349
1369	5.47200	14.63739	1002.57428	275.65533	-164.80023	946.26343	282.27402	-182.46318	596.16992	334.87677	-213.81879	542.94092	324.37772	-249.87907	629.73804	339.58694	-272.69568	572.64392	327.76102	-275.16888	486.38547	313.62106	-277.53192	482.90359	200.37091	-300.57150	297.32071	316.97385	-326.22360	259.12762	313.26746	-351.85532	329.14484	325.75159	-371.58035	284.70511	322.91241	-443.94281	135.26527	294.41696	-454.42023	156.95361	216.82086	-406.68594	64.46877	260.10156	-588.57471	150.81000	311.42136	-601.79919	185.08858	257.56146	-589.58289	159.73192	217.74774	25.05884	1007.24591	165.23738	-131.05536	957.49518	77.32513	96.19785	620.99792	88.41964	113.66168	563.38635	103.93742	39.03269	601.73340	62.75631	48.49457	541.06458	72.39005	71.27600	473.82037	95.25659	73.54250	497.17419	206.06424	211.17146	323.31836	94.87631	222.41438	276.88702	101.10738	154.26453	299.50204	87.06288	173.33981	260.84357	92.04419	225.58409	115.90540	124.90685	214.11478	117.32467	206.07480	302.44751	85.22363	159.00792	99.49349	52.32881	202.74516	71.60540	62.64556	165.06255	126.03147	41.11184	97.98209
1370	5.47600	8.57335	1001.14819	276.22687	-171.09401	945.28461	282.21030	-187.29141	594.62903	335.17404	-218.31229	541.28918	324.83823	-254.94489	627.69525	340.33862	-277.39453	570.56635	328.61343	-280.17828	484.77026	313.99423	-282.22073	481.15750	200.67744	-307.38318	296.13376	317.50412	-333.25012	258.17764	313.77216	-358.51053	328.42606	325.95972	-378.90164	284.46014	323.26318	-451.90625	135.34967	294.59351	-462.44052	157.17068	216.97284	-415.51682	64.19519	259.97595	-596.27087	152.29420	312.08182	-609.82367	186.80542	258.16476	-597.69714	161.25467	218.42018	19.23039	1005.93085	165.98972	-136.22479	956.72083	77.27736	91.51184	621.09595	89.26897	109.13161	563.45453	104.76073	34.67737	601.55322	62.93435	44.27964	540.80280	72.47464	67.28228	473.60736	95.43410	68.53816	496.75946	206.29150	208.46638	324.30731	95.36262	220.15416	277.95392	101.60245	151.90269	299.99408	87.34124	171.21748	261.43292	92.31654	224.67361	116.85729	125.20497	213.23277	118.23142	206.13187	302.35400	87.17073	159.02531	99.33102	52.30311	202.74286	71.34975	62.50767	165.02721	125.98598	41.18565	98.01135
1371	5.48000	2.52343	999.77740	276.73468	-177.36967	944.40472	282.18677	-192.20993	593.17212	335.48157	-222.91734	539.63678	325.29709	-259.91818	625.94336	341.06754	-282.13754	568.58026	329.44659	-285.12497	483.27966	314.41095	-286.94254	479.56781	200.98256	-313.60898	295.17645	318.47308	-340.37430	257.19147	314.15289	-364.91321	327.67163	326.17966	-386.11700	284.21121	323.38022	-459.41779	135.19518	294.70480	-470.11215	157.21962	217.20015	-424.00290	63.71215	259.73965	-603.56824	153.31506	312.78156	-616.71179	188.08983	259.23364	-605.26172	162.66888	219.09973	13.54123	1004.77881	166.67174	-142.33626	956.09003	77.02186	86.69968	621.09015	90.03609	104.46854	563.55292	105.59315	30.18008	601.42572	63.12140	40.09834	540.71063	72.59287	63.15927	473.40805	95.63554	63.37454	496.31299	206.52620	205.68437	325.30930	95.90362	217.78093	279.10986	102.13489	149.38437	300.46045	87.62333	169.15317	262.13135	92.61996	223.80392	117.97461	125.44069	212.26770	119.11201	206.28381	301.44925	88.57085	159.21690	98.98339	52.25336	202.73465	70.93993	62.27908	164.91521	125.88744	41.25975	98.05512
